<svg xmlns="http://www.w3.org/2000/svg" width="215.527" height="76.45" viewBox="0 0 215.527 76.45">
  <g id="Group_4" data-name="Group 4" transform="translate(-82.651 -168.573)">
    <rect id="Rectangle_1" data-name="Rectangle 1" width="215.527" height="76.45" transform="translate(82.651 168.573)" fill="none"/>
    <g id="Group_3" data-name="Group 3">
      <g id="Group_1" data-name="Group 1">
        <path id="Path_1" data-name="Path 1" d="M240.663,208.363v-2.671l2.691-.307a1.971,1.971,0,0,0,1.446-1.162l6.73-10.943a1.041,1.041,0,0,0-.692-1.7l-3.542-.408v-2.708h15.325a2.2,2.2,0,0,1,1.762,1.1l8.948,13.677c.705,1.1,1.246,1.956,2.143,2.074l2.817.314v2.733H261.067v-2.7l2.188-.269c1.049-.119,1.907-.6,1.049-1.875l-.828-1.251H251.254l-.937,1.521c-.585.93,0,1.486.9,1.6l2.19.269v2.7h-12.74m12.782-9.608h7.73l-3.9-6.137-3.828,6.137" fill="#c00"/>
        <path id="Path_2" data-name="Path 2" d="M229.245,188.463H209.54v2.708l2.478.248a1.5,1.5,0,0,1,1.288,1.706v10.712a1.4,1.4,0,0,1-1.127,1.562l-2.648.34v2.612l19.714.012c9.075,0,12.975-4.41,12.975-10.236,0-5.234-3.9-9.664-12.975-9.664M226.2,204.542h-5.078V192.268H226.2c4.844,0,6.883,1.127,6.883,6.128,0,5.042-2.039,6.146-6.883,6.146" fill="#c00"/>
        <path id="Path_3" data-name="Path 3" d="M102.543,208.363h15.944v-2.655l-2.73-.309c-.623-.083-1.249-.474-1.249-1.8v-3.2h12.271v3.045c0,.9-.152,1.76-1.215,1.878l-2.775.314v2.733h15.944V205.63l-2.813-.314c-.545-.078-1.173-.514-1.173-1.639V193.322c0-1.054.384-1.767,1.21-1.838l2.776-.313v-2.708H122.789v2.671l2.775.35c.939.118,1.215.859,1.215,1.838v3.09H114.508V193.28c0-1.175.468-1.725,1.287-1.8l2.692-.313v-2.708H102.579v2.708l2.663.313c1.057.118,1.33.9,1.29,1.911v10.088c0,1.125-.311,1.8-1.328,1.916l-2.661.309v2.655" fill="#c00"/>
        <path id="Path_4" data-name="Path 4" d="M139.517,198.315c0-6.246,5.041-10.628,16.293-10.628,11.182,0,16.228,4.382,16.228,10.628,0,6.409-5.046,10.748-16.228,10.748-11.252,0-16.293-4.339-16.293-10.748m16.254-6.793c-4.529,0-7.106,1.684-7.106,6.837,0,5.238,2.577,6.921,7.106,6.921s7.116-1.683,7.116-6.921c0-5.153-2.583-6.837-7.116-6.837" fill="#c00"/>
        <path id="Path_5" data-name="Path 5" d="M172.919,208.363H185.66v-2.655l-2.738-.309a1.48,1.48,0,0,1-1.251-1.644V193.632l10.593,13.953a2.162,2.162,0,0,0,1.645.778h10V193.28c0-.711.184-1.676,1.21-1.8l2.777-.313v-2.708H195.154v2.671l2.781.35c.975.118,1.209.937,1.209,1.871v9.853l-10.517-13.873a1.982,1.982,0,0,0-1.638-.872h-14.07v2.708l2.658.313c.936.139,1.288.613,1.288,1.911v10.088c0,1.193-.326,1.763-1.329,1.916l-2.617.309v2.655" fill="#c00"/>
      </g>
      <g id="Group_2" data-name="Group 2">
        <path id="Path_6" data-name="Path 6" d="M109,216.846h4.039v8.277H114.5v-8.277h3.99v-1.1H109Z"/>
        <path id="Path_7" data-name="Path 7" d="M124.367,217.781a3.453,3.453,0,0,0-2.975,1.446v-3.481h-1.414v9.381h1.414v-3.338a2.694,2.694,0,0,1,2.767-3.036c1.414,0,2.163.823,2.163,2.375v4h1.408v-4.065C127.73,218.947,126.536,217.781,124.367,217.781Z"/>
        <path id="Path_8" data-name="Path 8" d="M158.8,218.516a4.783,4.783,0,0,0-3.295-1.022,4.7,4.7,0,0,0-3.253,1.072,4.167,4.167,0,0,0,0,5.7,4.727,4.727,0,0,0,3.253,1.018c2.839,0,4.4-1.384,4.4-3.9A3.7,3.7,0,0,0,158.8,218.516Zm-.381,2.871a2.7,2.7,0,0,1-2.914,2.878,2.87,2.87,0,0,1-2.155-.827,2.921,2.921,0,0,1-.733-2.051,2.9,2.9,0,0,1,5.8,0Z"/>
        <path id="Path_9" data-name="Path 9" d="M200.831,218.516a5.655,5.655,0,0,0-6.556.05,3.69,3.69,0,0,0-1.137,2.821c0,2.513,1.561,3.9,4.4,3.9a4.76,4.76,0,0,0,3.264-1.018,4.256,4.256,0,0,0,.03-5.75Zm-5.458.8a2.92,2.92,0,0,1,2.164-.8,2.641,2.641,0,0,1,2.924,2.877,2.879,2.879,0,0,1-.755,2.046,2.909,2.909,0,0,1-2.169.832,2.713,2.713,0,0,1-2.912-2.878A2.9,2.9,0,0,1,195.373,219.312Z"/>
        <path id="Path_10" data-name="Path 10" d="M229.28,217.585a3.215,3.215,0,0,0-2.642,1.872V217.65h-1.265v7.482h1.435V221.2a2.4,2.4,0,0,1,.814-1.761,2.8,2.8,0,0,1,1.913-.671l.695-.013v-1.165h-.018A8.751,8.751,0,0,0,229.28,217.585Z"/>
        <path id="Path_11" data-name="Path 11" d="M146.215,215.738l-4.266.013v9.375h1.457v-3.6h3.007a4.467,4.467,0,0,0,2.916-.843,2.713,2.713,0,0,0,.94-2.152,2.444,2.444,0,0,0-.681-1.8A4.691,4.691,0,0,0,146.215,215.738Zm2.5,2.8c0,1.327-.75,1.919-2.427,1.919h-2.881v-3.648h2.782C147.91,216.809,148.714,217.359,148.714,218.538Z"/>
        <path id="Path_12" data-name="Path 12" d="M222.039,216.963a6.168,6.168,0,0,0-4.181-1.219h-4.182v9.391h4.237a6.077,6.077,0,0,0,4.03-1.213,5.1,5.1,0,0,0,.1-6.959Zm-6.882-.142h2.362a4.965,4.965,0,0,1,3.466.917,3.479,3.479,0,0,1,.855,2.7c0,2.439-1.343,3.622-4.108,3.622h-2.575Z"/>
        <path id="Path_13" data-name="Path 13" d="M247.884,223.538v-3.1a2.291,2.291,0,0,0-.778-2.065,4.571,4.571,0,0,0-2.854-.865c-1.128,0-3.065.325-3.428,1.874h1.543a2.015,2.015,0,0,1,1.885-.871c1.335,0,2.255.592,2.255,1.74v.25h-1.193c-1.307,0-3.281.051-4.229,1.021a1.9,1.9,0,0,0-.537,1.381c0,1.4,1.2,2.379,2.989,2.379a3.222,3.222,0,0,0,3.022-1.258,10.924,10.924,0,0,0,.073,1.112h1.355A14.837,14.837,0,0,1,247.884,223.538Zm-1.377-1.732c0,1.648-.854,2.479-2.616,2.479-1.2,0-1.851-.511-1.851-1.386a1.044,1.044,0,0,1,.3-.764,4.262,4.262,0,0,1,2.774-.651c.147,0,.288,0,.418,0l.277,0h.7Z"/>
        <path id="Path_14" data-name="Path 14" d="M259.136,217.507a2.882,2.882,0,0,0-2.72,1.8,2.7,2.7,0,0,0-2.515-1.8,2.828,2.828,0,0,0-2.611,1.566s-.007-.688-.061-1.424H249.9c.042.558.047,1.238.047,1.826v5.657h1.408v-3.6c0-2.051,1.127-2.983,2.242-2.983,1.164,0,1.708.882,1.708,2.773v3.807h1.405v-3.6a3.156,3.156,0,0,1,.854-2.426,2.061,2.061,0,0,1,1.348-.557,1.448,1.448,0,0,1,1.4.709,4.372,4.372,0,0,1,.372,2.132v3.739h1.409V220.84a3.466,3.466,0,0,0-.843-2.538A2.889,2.889,0,0,0,259.136,217.507Z"/>
        <path id="Path_15" data-name="Path 15" d="M269.373,221.06l-2.346-.484c-1.111-.224-1.6-.523-1.6-1.027,0-.682.879-1.038,2.16-1.038,1.051,0,1.8.281,2.043.866h1.531a1.882,1.882,0,0,0-1.119-1.445,5.959,5.959,0,0,0-2.414-.437,4.98,4.98,0,0,0-2.442.532,2.025,2.025,0,0,0-1.166,1.744c0,.991.727,1.586,2.043,1.871l2.221.474c.765.161,1.553.379,1.553,1.026,0,.777-.814,1.154-2.291,1.154-1.221,0-1.96-.352-2.206-1.084H263.8c.295,1.709,2.084,2.074,3.58,2.074,2.66,0,3.954-.764,3.954-2.336C271.329,221.9,270.763,221.347,269.373,221.06Z"/>
        <path id="Path_16" data-name="Path 16" d="M206.992,215.6a2.958,2.958,0,0,0-2,.542,2.021,2.021,0,0,0-.618.938,5.026,5.026,0,0,0-.179,1.525h-1.533v1.016H204.2l0,5.511h1.435v-5.511h2.586V218.6h-2.586c0-1.042.048-1.376.354-1.668a1.594,1.594,0,0,1,1.195-.328,4.361,4.361,0,0,1,1.12.125V215.7A7.76,7.76,0,0,0,206.992,215.6Z"/>
        <path id="Path_17" data-name="Path 17" d="M171.25,220.967c-.279.9-.583,1.914-.953,3.178h-.007c-.3-1.009-.623-2.055-.953-3.109l-.99-3.036-.005-.013h-2.176l-1,3.049c-.335,1.016-.655,2.062-.953,3.109h-.007c-.371-1.267-.673-2.277-.952-3.178L162.336,218l-.005-.013h-1.557l2.312,7.132.005.012h2.178l1.029-3.09c.083-.263.165-.526.248-.788.234-.742.476-1.511.7-2.278h.008c.238.8.491,1.6.737,2.38q.106.342.216.687l1.024,3.077,0,.012h2.178l2.31-7.12.007-.024h-1.558Z"/>
        <path id="Path_18" data-name="Path 18" d="M188.272,217.585a3.217,3.217,0,0,0-2.642,1.872V217.65h-1.264v7.482H185.8V221.2a2.413,2.413,0,0,1,.814-1.761,2.8,2.8,0,0,1,1.914-.671l.7-.013v-1.165H189.2A8.751,8.751,0,0,0,188.272,217.585Z"/>
        <path id="Path_19" data-name="Path 19" d="M181.468,218.531a3.9,3.9,0,0,0-2.844-1.036,3.689,3.689,0,0,0-4.044,4.033,3.591,3.591,0,0,0,1.051,2.7,4.3,4.3,0,0,0,2.982,1.052,4.932,4.932,0,0,0,2.415-.6,2.637,2.637,0,0,0,1.3-1.475h-1.561a2.421,2.421,0,0,1-2.235,1.071,2.357,2.357,0,0,1-2.24-1.315,3.285,3.285,0,0,1-.325-1.186h6.492v-.434A3.817,3.817,0,0,0,181.468,218.531ZM176,220.782a2.426,2.426,0,0,1,.081-.416,2.367,2.367,0,0,1,2.513-1.868,2.217,2.217,0,0,1,2.388,2.284Z"/>
        <path id="Path_20" data-name="Path 20" d="M237.853,218.531a3.9,3.9,0,0,0-2.843-1.036,3.689,3.689,0,0,0-4.044,4.033,3.591,3.591,0,0,0,1.051,2.7A4.3,4.3,0,0,0,235,225.284a4.932,4.932,0,0,0,2.415-.6,2.637,2.637,0,0,0,1.3-1.475h-1.561a2.421,2.421,0,0,1-2.235,1.071,2.355,2.355,0,0,1-2.239-1.315,3.265,3.265,0,0,1-.326-1.186h6.492a6.252,6.252,0,0,0-.029-.936A3.634,3.634,0,0,0,237.853,218.531Zm-5.468,2.251a2.246,2.246,0,0,1,.08-.416,2.367,2.367,0,0,1,2.513-1.868,2.217,2.217,0,0,1,2.388,2.284Z"/>
        <path id="Path_21" data-name="Path 21" d="M136.324,218.531a3.9,3.9,0,0,0-2.844-1.036,3.689,3.689,0,0,0-4.043,4.033,3.591,3.591,0,0,0,1.051,2.7,4.3,4.3,0,0,0,2.982,1.052,4.935,4.935,0,0,0,2.415-.6,2.637,2.637,0,0,0,1.3-1.475h-1.562a2.419,2.419,0,0,1-2.234,1.071,2.354,2.354,0,0,1-2.239-1.315,3.265,3.265,0,0,1-.326-1.186h6.492v-.434A3.817,3.817,0,0,0,136.324,218.531Zm-5.469,2.251a2.423,2.423,0,0,1,.08-.416,2.368,2.368,0,0,1,2.514-1.868,2.217,2.217,0,0,1,2.388,2.284Z"/>
      </g>
    </g>
  </g>
</svg>
